<?xml version="1.0" encoding="utf-8"?>
<!-- Generator: Adobe Illustrator 16.0.4, SVG Export Plug-In . SVG Version: 6.00 Build 0)  -->
<!DOCTYPE svg PUBLIC "-//W3C//DTD SVG 1.1//EN" "http://www.w3.org/Graphics/SVG/1.1/DTD/svg11.dtd">
<svg version="1.1" id="Layer_1" xmlns="http://www.w3.org/2000/svg" xmlns:xlink="http://www.w3.org/1999/xlink" x="0px" y="0px"
	 width="1280px" height="800px" viewBox="383.358 201.616 1280 800" enable-background="new 383.358 201.616 1280 800"
	 xml:space="preserve">
<g transform="translate(0.000000,334.000000) scale(0.100000,-0.100000)">
	<path fill="#616161" d="M9830.976,174.405C8914.56,116.104,8110.175-381.22,7620.175-1192.372
		c-270.908-445.869-401.357-931.191-401.357-1486.816c0-555.644,130.449-1040.957,401.357-1486.826
		c334.463-555.625,829.473-977.5,1394.717-1188.428c327.764-123.477,618.76-176.631,974.951-176.631
		c468.232,0,882.979,102.891,1279.307,315.527c694.023,373.867,1224.141,1058.105,1413.105,1833.242
		c107.051,435.586,107.051,970.635,0,1406.22c-188.965,775.137-719.082,1459.385-1413.105,1833.222
		C10844.384,85.235,10304.237,203.565,9830.976,174.405z M10259.081-614.453c214.053-574.492,219.072-591.64,178.936-586.494
		c-36.797,5.146-50.176,29.15-113.711,202.363l-71.904,197.207l-255.859,5.137l-257.539,3.438l-75.254-205.781
		c-66.895-183.496-78.604-205.791-113.711-205.791c-31.787,0-38.477,6.855-28.438,30.869
		C9929.647-75.976,9953.046-21.093,9996.542-21.093C10038.339-21.093,10050.038-45.107,10259.081-614.453z M11854.462-4322.069
		c0-78.896-35.117-137.188-132.109-222.939c-70.234-60.02-95.312-72.021-155.527-72.021h-70.234l-720.762,737.402l-719.092,735.703
		l-103.691-101.191c-55.176-56.582-112.031-102.891-123.75-102.891c-63.535,0-530.117,565.918-757.549,917.48
		c-210.713,324.111-448.184,793.994-583.633,1157.549c-61.885,162.92-195.664,601.933-195.664,639.658
		c0,12.012,801.035-800.849,1781.006-1805.781C11715.673-4123.144,11854.462-4270.624,11854.462-4322.069z M11583.544-693.339
		c-48.477-73.74-322.754-384.131-602.031-675.674c-155.527-162.91-280.938-301.816-280.938-312.109
		c0-27.432,48.496-72.021,78.594-72.021c13.379,0,183.965,159.482,379.609,356.689c428.105,430.449,628.789,601.934,628.789,540.195
		c0-37.715-394.648-490.449-683.984-785.42c-112.031-113.184-202.344-217.793-202.344-231.514c0-39.434,33.457-68.594,76.934-68.594
		c26.758,0,95.312,63.457,227.441,205.791c272.578,296.67,712.402,703.115,762.559,703.115c58.535,0-118.73-212.656-553.516-663.672
		c-219.082-226.367-331.133-354.98-326.113-373.848c1.66-17.148,21.738-41.152,41.816-56.592
		c36.797-24.014,48.477-15.439,351.172,289.814c386.309,387.578,637.148,615.635,675.605,615.635
		c30.117,0,11.719-36.006-71.895-140.625c-113.711-142.324-856.23-912.305-939.844-975.762
		c-105.352-80.596-210.703-66.875-319.414,37.725l-51.836,49.736l-173.926-180.059c-96.992-99.463-182.285-180.068-190.645-180.068
		c-23.398,0-160.527,140.625-160.527,162.91c0,10.293,78.594,97.754,175.586,197.217l173.926,178.35l-55.195,63.457
		c-31.777,34.297-65.215,90.879-75.254,123.467c-36.777,111.465,6.699,169.775,434.805,607.08
		c398.008,404.707,553.535,550.478,642.168,607.07C11603.622-633.32,11617.001-640.175,11583.544-693.339z M8409.511-2121.845
		c0-22.295-46.816-25.723-326.094-25.723h-326.113v-248.662v-248.662h259.219c219.072,0,259.199-3.438,259.199-25.723
		c0-22.295-40.127-25.732-259.199-25.732h-259.219v-265.81v-265.811h334.473c285.957,0,334.453-3.428,334.453-25.723
		c0-22.285-53.516-25.723-376.27-25.723h-376.27v591.64v591.65h367.91C8357.675-2096.122,8409.511-2099.56,8409.511-2121.845z
		 M12523.388-2173.29c0-20.586-31.777-25.723-183.945-25.723h-183.965v-565.927v-565.918h-41.797h-41.816v565.918v565.927h-175.586
		c-145.508,0-175.605,5.137-175.605,25.723c0,22.285,55.195,25.723,401.367,25.723S12523.388-2151.005,12523.388-2173.29z
		 M9663.749-3390.878c0-10.283-257.539-281.25-573.604-605.361c-615.42-629.365-610.4-625.938-704.043-550.488
		c-30.107,24.014-43.486,51.445-43.486,89.18c0,49.736,61.875,118.33,580.303,649.951l581.963,596.777l78.594-80.596
		C9628.632-3335.995,9663.749-3380.595,9663.749-3390.878z M10096.874-3975.653c102.012-44.6,167.236-132.051,190.635-258.965
		c10.049-51.445,6.699-56.582-28.428-56.582c-33.447,0-40.127,12.002-50.176,72.021
		c-21.738,142.334-193.984,255.518-351.172,229.795c-150.508-25.723-239.141-135.469-222.422-279.531
		c13.379-130.322,65.234-166.348,372.92-260.664c242.49-75.449,311.055-144.043,311.055-312.1
		c0-109.766-46.816-200.645-133.779-264.102c-66.895-46.309-86.963-51.445-227.432-56.592
		c-172.256-6.865-244.16,17.148-331.123,111.475c-88.633,94.316-128.77,262.373-65.215,262.373
		c23.408,0,35.117-17.148,43.477-54.883c41.807-200.645,207.363-310.391,406.367-269.238
		c173.926,36.025,272.578,192.07,219.082,348.135c-31.777,92.598-95.332,133.76-322.754,207.5
		c-294.336,94.316-352.861,147.471-352.861,317.256c0,109.756,26.758,161.211,115.381,231.514
		C9769.101-3931.073,9958.075-3915.634,10096.874-3975.653z"/>
	<path fill="#616161" d="M9876.132-437.812c-61.875-162.92-112.051-301.826-112.051-308.682c0-6.865,105.352-12.012,235.791-12.012
		c128.77,0,232.451,6.855,229.111,15.43c-1.67,6.865-53.516,145.771-113.711,308.691
		c-60.205,161.191-112.051,293.242-117.07,293.242C9991.522-141.142,9938.007-274.892,9876.132-437.812z"/>
</g>
</svg>
