<?xml version="1.0" encoding="utf-8"?>
<!-- Generator: Adobe Illustrator 16.0.4, SVG Export Plug-In . SVG Version: 6.00 Build 0)  -->
<!DOCTYPE svg PUBLIC "-//W3C//DTD SVG 1.1//EN" "http://www.w3.org/Graphics/SVG/1.1/DTD/svg11.dtd">
<svg version="1.1" id="Layer_1" xmlns="http://www.w3.org/2000/svg" xmlns:xlink="http://www.w3.org/1999/xlink" x="0px" y="0px"
	 width="800px" height="600px" viewBox="-92 120 800 600" enable-background="new -92 120 800 600" xml:space="preserve">
<g transform="translate(0.000000,334.000000) scale(0.100000,-0.100000)">
	<path d="M2960.293,1876.445c-916.421-58.301-1720.806-555.625-2210.801-1366.777C478.584,63.799,348.14-421.523,348.14-977.148
		c0-555.645,130.444-1040.957,401.352-1486.826c334.463-555.625,829.473-977.5,1394.717-1188.427
		c327.764-123.477,618.76-176.631,974.951-176.631c468.242,0,882.979,102.891,1279.316,315.527
		C5092.49-3139.638,5622.617-2455.4,5811.582-1680.264c107.041,435.586,107.041,970.635,0,1406.221
		c-188.965,775.136-719.092,1459.385-1413.105,1833.222C3973.711,1787.275,3433.554,1905.605,2960.293,1876.445z M3388.398,1087.588
		c214.062-574.492,219.082-591.641,178.936-586.494c-36.787,5.146-50.166,29.15-113.711,202.363l-71.904,197.207l-255.859,5.137
		l-257.539,3.438l-75.254-205.781c-66.895-183.496-78.604-205.791-113.711-205.791c-31.787,0-38.477,6.855-28.438,30.869
		c408.047,1097.529,431.445,1152.412,474.941,1152.412C3167.656,1680.947,3179.355,1656.933,3388.398,1087.588z M4983.789-2620.029
		c0-78.896-35.117-137.187-132.119-222.939c-70.225-60.02-95.312-72.021-155.518-72.021h-70.244l-720.761,737.402l-719.092,735.703
		l-103.691-101.191c-55.176-56.582-112.031-102.891-123.75-102.891c-63.535,0-530.117,565.918-757.549,917.48
		c-210.713,324.111-448.183,793.994-583.633,1157.549c-61.88,162.92-195.664,601.934-195.664,639.658
		c0,12.012,801.035-800.85,1781.006-1805.781C4844.99-2421.104,4983.789-2568.584,4983.789-2620.029z M4712.871,1008.701
		c-48.486-73.74-322.754-384.131-602.031-675.674c-155.527-162.91-280.947-301.816-280.947-312.109
		c0-27.432,48.506-72.021,78.604-72.021c13.379,0,183.955,159.482,379.609,356.689c428.105,430.449,628.789,601.934,628.789,540.195
		c0-37.715-394.658-490.449-683.984-785.42c-112.031-113.184-202.344-217.793-202.344-231.514c0-39.434,33.457-68.594,76.924-68.594
		c26.768,0,95.322,63.457,227.441,205.791c272.588,296.67,712.402,703.115,762.568,703.115c58.535,0-118.73-212.656-553.525-663.672
		c-219.082-226.367-331.123-354.98-326.104-373.848c1.66-17.148,21.738-41.152,41.807-56.592
		c36.797-24.014,48.486-15.439,351.182,289.814c386.309,387.578,637.148,615.644,675.605,615.644
		c30.117,0,11.719-36.006-71.895-140.625c-113.721-142.324-856.23-912.314-939.844-975.771
		c-105.352-80.596-210.703-66.875-319.414,37.734l-51.836,49.727l-173.926-180.059c-96.992-99.463-182.285-180.068-190.645-180.068
		c-23.398,0-160.537,140.625-160.537,162.91c0,10.293,78.604,97.754,175.596,197.217l173.926,178.35l-55.195,63.457
		c-31.777,34.297-65.215,90.879-75.254,123.467c-36.777,111.465,6.689,169.775,434.795,607.08
		c398.017,404.707,553.545,550.479,642.177,607.07C4732.939,1068.72,4746.318,1061.865,4712.871,1008.701z M1538.828-419.805
		c0-22.295-46.821-25.723-326.099-25.723H886.626v-248.662v-248.662h259.209c219.077,0,259.209-3.438,259.209-25.723
		c0-22.295-40.132-25.732-259.209-25.732H886.626v-265.811v-265.811h334.463c285.967,0,334.463-3.428,334.463-25.723
		c0-22.285-53.516-25.723-376.27-25.723H803.013v591.641v591.65h367.91C1486.987-394.082,1538.828-397.52,1538.828-419.805z
		 M5652.714-471.25c0-20.586-31.777-25.723-183.955-25.723h-183.955V-1062.9v-565.918h-41.807h-41.807v565.918v565.928h-175.596
		c-145.498,0-175.596,5.137-175.596,25.723c0,22.285,55.186,25.723,401.357,25.723S5652.714-448.965,5652.714-471.25z
		 M2793.066-1688.838c0-10.283-257.539-281.25-573.604-605.361c-615.415-629.365-610.395-625.937-704.043-550.488
		c-30.107,24.014-43.481,51.445-43.481,89.18c0,49.736,61.875,118.33,580.293,649.951l581.968,596.777l78.594-80.596
		C2757.949-1633.955,2793.066-1678.555,2793.066-1688.838z M3226.191-2273.613c102.012-44.6,167.236-132.051,190.635-258.965
		c10.049-51.445,6.699-56.582-28.428-56.582c-33.447,0-40.127,12.002-50.176,72.021
		c-21.738,142.334-193.984,255.518-351.172,229.795c-150.508-25.723-239.141-135.469-222.422-279.531
		c13.379-130.322,65.234-166.347,372.92-260.664c242.49-75.449,311.064-144.043,311.064-312.1
		c0-109.766-46.826-200.645-133.789-264.102c-66.895-46.309-86.963-51.445-227.432-56.592
		c-172.256-6.865-244.16,17.148-331.123,111.475c-88.633,94.316-128.77,262.373-65.215,262.373
		c23.408,0,35.117-17.148,43.477-54.883c41.807-200.645,207.363-310.391,406.367-269.238
		c173.926,36.025,272.578,192.07,219.082,348.135c-31.777,92.598-95.332,133.76-322.754,207.5
		c-294.336,94.316-352.861,147.471-352.861,317.256c0,109.756,26.758,161.211,115.381,231.514
		C2898.418-2229.033,3087.392-2213.594,3226.191-2273.613z"/>
	<path d="M3005.449,1264.228c-61.875-162.92-112.051-301.826-112.051-308.682c0-6.865,105.352-12.012,235.791-12.012
		c128.77,0,232.451,6.855,229.111,15.43c-1.67,6.865-53.516,145.771-113.711,308.691
		c-60.205,161.191-112.051,293.242-117.07,293.242C3120.84,1560.898,3067.324,1427.148,3005.449,1264.228z"/>
</g>
</svg>
